<svg id="Layer_1" enable-background="new 0 0 128 128" viewBox="0 0 128 128" xmlns="http://www.w3.org/2000/svg" xmlns:xlink="http://www.w3.org/1999/xlink"><linearGradient id="SVGID_1_" gradientTransform="matrix(1 0 0 -1 0 130)" gradientUnits="userSpaceOnUse" x1="105.902" x2="22.108" y1="24.078" y2="107.872"><stop offset="0" stop-color="#c7e554"/><stop offset="1" stop-color="#f3d232"/></linearGradient><path d="m64 4.8c-32.8 0-59.3 26.5-59.3 59.3 0 3.7.4 7.4 1.1 11.1.2.9 1.1 1.6 2 1.4s1.6-1.1 1.4-2c-5.8-30.2 14-59.4 44.2-65.2s59.4 14 65.2 44.2-14 59.4-44.2 65.2c-26.9 5.2-53.5-10-62.9-35.7-.3-.9-1.3-1.4-2.2-1.1s-1.4 1.3-1.1 2.2v.1c11.2 30.8 45.1 46.7 75.9 35.5s46.7-45.1 35.5-75.9c-8.4-23.5-30.7-39.1-55.6-39.1zm46 74.7c-.9-.3-1.9.1-2.3 1-.3.7-.6 1.4-.9 2.1-.4.9 0 1.9.9 2.3s1.9 0 2.3-.9c.3-.7.6-1.5.9-2.3.4-.8 0-1.8-.9-2.2zm3.1-4.7c6-27.1-11.2-54-38.3-60s-54 11.2-60 38.3 11.2 54 38.3 60c21 4.6 42.5-4.6 53.7-22.9.5-.8.3-1.9-.5-2.4s-1.9-.3-2.4.5c-13.4 21.9-42.1 28.7-63.9 15.3s-28.8-42-15.3-63.9 42-28.7 63.9-15.2c16.8 10.4 25.3 30.2 21.1 49.5-.2.9.4 1.9 1.3 2.1s1.9-.4 2.1-1.3zm-63.7 12.9v-8.2h-1.5v3.4h-4.1v-3.4h-1.5v8.2h1.5v-3.5h4.1v3.5zm6.8-8.3 3.4 8.2h-1.6l-.6-1.5h-4l-.6 1.5h-1.7l3.4-8.2zm.6 5.5-1.5-3.5-1.5 3.5zm4.5-5.5v8.2h5.7v-1.4h-4.2v-6.9h-1.5zm10.3 0h1.7l3.4 8.2h-1.7l-.6-1.5h-4l-.6 1.5h-1.7zm.9 2-1.5 3.5h2.9zm5.9-2v8.2h5.7v-1.4h-4.2v-6.9h-1.5zm17.2-17.8c-.3-.6-.9-1-1.5-1-1.7-.1-4.4-1.8-6.8-3.3-3.3-2.1-6.5-4.1-9.2-3.5-1.1.3-2.1 1.1-2.6 2.2-.5.8-.2 1.9.6 2.4s1.9.2 2.4-.6c0 0 0 0 0-.1.2-.4.4-.4.5-.5 1.2-.3 4.2 1.6 6.4 3 1.7 1.1 3.4 2.2 5.3 3-3.2 2.2-6.9 3.5-10.8 3.5-4.7.2-7.9-.8-8.7-1.7-1.4-1.4-.3-10.3.8-15 .4-1.5 1.4-5.6 1.7-6.3.3-.9-.1-1.9-1-2.3-.9-.3-2 .1-2.3 1-.9 3.1-1.6 5.9-1.7 6.6-.6 2.5-1.5 4.9-2.6 7.2-2.2-3.1-6.3-8.6-9.3-11.2-.7-.6-1.8-.5-2.5.2-.6.7-.5 1.8.2 2.5 3.3 2.8 8.4 10 9.8 12.1-1.8 3.3-4 6-6.4 6.8-1.5.3-3 .1-4.3-.7-.8-.5-1.9-.3-2.4.5s-.3 1.9.5 2.4c1.5.9 4.3 2 7.3 1.1 3.3-1 6-4.2 8.1-7.9.1 2.3.5 4.3 1.5 5.4 1.9 2.1 5.7 2.8 11.5 2.8 3.2-.2 11.2-1.2 15.4-6.9.3-.4.4-1.1.1-1.7zm-44.1-18.5c0-1-.8-1.7-1.8-1.7-1 0-1.7.8-1.7 1.8.2 12.5-.9 19-3.7 21.9-1.3 1.3-3.2 2-5 1.8-1.5 0-2.5-.4-3-1.1-1.1-1.5-.2-4.7.2-5.7.4-.9-.1-1.9-1-2.3s-1.9.1-2.3 1c-.2.6-2.1 5.6.2 8.9.8 1.2 2.5 2.6 5.9 2.6 2.8.1 5.5-.9 7.5-2.9 4.1-4.2 4.8-12.7 4.7-24.3z" fill="url(#SVGID_1_)"/></svg>